<svg width="174" height="21" viewBox="0 0 174 21" fill="none" xmlns="http://www.w3.org/2000/svg">
<path d="M4.496 8.296H13.932V11.824H4.496V8.296ZM4.832 16.36H15.5V20H0.324V0.399999H15.136V4.04H4.832V16.36ZM16.6778 20L25.1058 8.38V11.684L17.0418 0.399999H22.1938L27.7658 8.268L25.6098 8.296L31.0978 0.399999H36.0258L28.0178 11.488V8.24L36.5018 20H31.2658L25.4978 11.684H27.5698L21.8858 20H16.6778ZM37.4365 13.868V10.368H45.3605V13.868H37.4365ZM58.5673 20.336C57.0553 20.336 55.6459 20.0933 54.3393 19.608C53.0513 19.104 51.9313 18.3947 50.9793 17.48C50.0273 16.5653 49.2806 15.492 48.7393 14.26C48.2166 13.028 47.9553 11.6747 47.9553 10.2C47.9553 8.72533 48.2166 7.372 48.7393 6.14C49.2806 4.908 50.0273 3.83467 50.9793 2.92C51.9499 2.00533 53.0793 1.30533 54.3673 0.819998C55.6553 0.315999 57.0646 0.0639997 58.5953 0.0639997C60.2939 0.0639997 61.8246 0.362666 63.1873 0.96C64.5686 1.53867 65.7259 2.39733 66.6593 3.536L63.7473 6.224C63.0753 5.45867 62.3286 4.88933 61.5073 4.516C60.6859 4.124 59.7899 3.928 58.8193 3.928C57.9046 3.928 57.0646 4.07733 56.2993 4.376C55.5339 4.67467 54.8713 5.104 54.3113 5.664C53.7513 6.224 53.3126 6.88667 52.9953 7.652C52.6966 8.41733 52.5473 9.26667 52.5473 10.2C52.5473 11.1333 52.6966 11.9827 52.9953 12.748C53.3126 13.5133 53.7513 14.176 54.3113 14.736C54.8713 15.296 55.5339 15.7253 56.2993 16.024C57.0646 16.3227 57.9046 16.472 58.8193 16.472C59.7899 16.472 60.6859 16.2853 61.5073 15.912C62.3286 15.52 63.0753 14.932 63.7473 14.148L66.6593 16.836C65.7259 17.9747 64.5686 18.8427 63.1873 19.44C61.8246 20.0373 60.2846 20.336 58.5673 20.336ZM83.1624 0.399999H87.6984V20H83.1624V0.399999ZM74.2584 20H69.7224V0.399999H74.2584V20ZM83.4984 11.964H73.9224V8.128H83.4984V11.964ZM89.7597 20L98.4957 0.399999H102.976L111.74 20H106.98L99.8117 2.696H101.604L94.4077 20H89.7597ZM94.1277 15.8L95.3317 12.356H105.412L106.644 15.8H94.1277ZM113.773 20V0.399999H117.525L129.089 14.512H127.269V0.399999H131.749V20H128.025L116.433 5.888H118.253V20H113.773ZM145.851 20.336C144.301 20.336 142.873 20.0933 141.567 19.608C140.279 19.104 139.149 18.3947 138.178 17.48C137.227 16.5653 136.48 15.492 135.939 14.26C135.416 13.028 135.155 11.6747 135.155 10.2C135.155 8.72533 135.416 7.372 135.939 6.14C136.48 4.908 137.236 3.83467 138.207 2.92C139.177 2.00533 140.316 1.30533 141.623 0.819998C142.929 0.315999 144.367 0.0639997 145.935 0.0639997C147.671 0.0639997 149.229 0.353333 150.611 0.931998C152.011 1.51067 153.187 2.35067 154.139 3.452L151.227 6.14C150.517 5.39333 149.743 4.84267 148.903 4.488C148.063 4.11467 147.148 3.928 146.159 3.928C145.207 3.928 144.339 4.07733 143.555 4.376C142.771 4.67467 142.089 5.104 141.511 5.664C140.951 6.224 140.512 6.88667 140.195 7.652C139.896 8.41733 139.747 9.26667 139.747 10.2C139.747 11.1147 139.896 11.9547 140.195 12.72C140.512 13.4853 140.951 14.1573 141.511 14.736C142.089 15.296 142.761 15.7253 143.527 16.024C144.311 16.3227 145.169 16.472 146.103 16.472C146.999 16.472 147.867 16.332 148.707 16.052C149.565 15.7533 150.396 15.2587 151.199 14.568L153.775 17.844C152.711 18.6467 151.469 19.2627 150.051 19.692C148.651 20.1213 147.251 20.336 145.851 20.336ZM149.631 17.256V9.892H153.775V17.844L149.631 17.256ZM162.16 8.296H171.596V11.824H162.16V8.296ZM162.496 16.36H173.164V20H157.988V0.399999H172.8V4.04H162.496V16.36Z" fill="url(#paint0_linear_1_2)"/>
<defs>
<linearGradient id="paint0_linear_1_2" x1="184.664" y1="-7" x2="-10.1379" y2="-7" gradientUnits="userSpaceOnUse">
<stop stop-color="#CBE5FF"/>
<stop offset="1" stop-color="#54AAFF"/>
</linearGradient>
</defs>
</svg>
