<svg width="40" height="40" viewBox="0 0 40 40" fill="none" xmlns="http://www.w3.org/2000/svg">
<path d="M20 40C8.95375 40 0 31.0462 0 20C0 8.95375 8.95375 0 20 0C31.0462 0 40 8.95375 40 20C40 31.0462 31.0462 40 20 40ZM17.9938 29.4775C18.52 31.7438 19.2362 33.1362 20.025 33.1362C21.2688 33.1362 22.3325 29.6663 22.7575 24.77C27.2075 26.8575 30.745 27.675 31.37 26.5963C31.9938 25.52 29.5237 22.8587 25.5012 20.0362C29.5387 17.23 32.0175 14.58 31.3988 13.4987C30.9987 12.8025 29.3813 12.8912 27.0863 13.5962C27.0093 13.4602 26.8978 13.3468 26.7631 13.2676C26.6283 13.1884 26.4751 13.1461 26.3188 13.145C26.1906 13.1468 26.0643 13.1756 25.9481 13.2296C25.8318 13.2836 25.7283 13.3615 25.6443 13.4583C25.5603 13.5551 25.4977 13.6685 25.4605 13.7911C25.4234 13.9138 25.4125 14.0429 25.4288 14.17C24.5913 14.4875 23.6963 14.8675 22.76 15.3013C22.335 10.3938 21.2712 6.91375 20.025 6.91375C18.78 6.91375 17.7175 10.3837 17.2925 15.2787C12.8425 13.1925 9.30375 12.375 8.68 13.4537C8.29 14.1287 9.11 15.4237 10.7662 16.9888C10.7479 17.0636 10.7387 17.1404 10.7387 17.2175C10.7387 17.7288 11.1388 18.1425 11.6325 18.1425C11.7548 18.1429 11.8758 18.1173 11.9875 18.0675C12.8145 18.7507 13.669 19.4 14.5487 20.0138C10.5112 22.82 8.0325 25.47 8.6525 26.5512C9.2725 27.6312 12.8212 26.8225 17.29 24.7487C17.385 25.8475 17.5125 26.875 17.665 27.8088C17.5446 27.8959 17.4467 28.0106 17.3795 28.1432C17.3123 28.2758 17.2778 28.4226 17.2787 28.5713C17.2787 29.0175 17.5863 29.3913 17.9938 29.4775ZM18.5737 29.3987C18.7243 29.3192 18.8501 29.1999 18.9374 29.0537C19.0247 28.9076 19.0701 28.7402 19.0688 28.57C19.0723 28.3377 18.9871 28.1128 18.8306 27.9412C18.674 27.7695 18.4579 27.664 18.2262 27.6463C18.0713 26.6462 17.9613 25.5575 17.885 24.4675C18.6033 24.1215 19.3139 23.7598 20.0163 23.3825C20.7563 23.7825 21.4825 24.1563 22.1887 24.4988C22.0732 25.7171 21.916 26.9311 21.7175 28.1388C21.0963 31.6562 20.2275 32.3962 20.2275 32.3962C20.0425 32.6437 19.8563 32.4587 19.8563 32.4587C19.1112 31.5937 18.7388 29.99 18.7388 29.99C18.6785 29.7944 18.6235 29.5973 18.5737 29.3987ZM12.4275 17.6425C12.4935 17.5105 12.5277 17.365 12.5275 17.2175C12.5275 16.705 12.1275 16.2925 11.6325 16.2925C11.4398 16.2924 11.2526 16.3561 11.1 16.4737C9.3675 14.8112 9.21875 13.9975 9.21875 13.9975V13.995C9.0975 13.71 9.35125 13.6413 9.35125 13.6413C10.4725 13.4288 12.0475 13.9125 12.0475 13.9125C13.5287 14.25 15.41 15.0425 17.24 15.935C17.1814 16.7357 17.1405 17.5375 17.1175 18.34C16.4037 18.7775 15.7188 19.2175 15.0712 19.6562C14.1705 19.0114 13.2889 18.339 12.4275 17.6425ZM25.7 14.7375C25.7812 14.8193 25.8778 14.8843 25.9842 14.9287C26.0906 14.9731 26.2047 14.996 26.32 14.9963C26.765 14.9963 27.1337 14.6587 27.2025 14.2188C29.49 13.5013 30.4175 13.585 30.7425 13.6737C30.7954 13.6883 30.8415 13.7211 30.8724 13.7665C30.9033 13.8118 30.9171 13.8667 30.9113 13.9213C30.8487 14.5925 29.6613 15.805 29.6613 15.805C28.2206 17.2274 26.6654 18.5289 25.0113 19.6963C24.3287 19.2304 23.6356 18.7803 22.9325 18.3463C22.9101 17.5392 22.8697 16.7327 22.8113 15.9275C23.7613 15.5013 24.7255 15.1044 25.7 14.7375ZM24.9825 20.3925C29.9587 24.0025 30.7638 25.6313 30.89 26.115C30.9037 26.1678 30.8982 26.2237 30.8747 26.2729C30.8511 26.3221 30.8109 26.3613 30.7612 26.3838C30.1487 26.665 28.505 26.2463 28.505 26.2463C26.5523 25.7111 24.6467 25.0167 22.8075 24.17C22.8663 23.3813 22.9075 22.5575 22.9325 21.7113C23.6488 21.2738 24.3325 20.8312 24.9825 20.3925ZM17.1038 21.04C16.6013 20.7159 16.105 20.3826 15.615 20.04C16.115 19.7113 16.615 19.3925 17.1025 19.09C17.0922 19.74 17.0927 20.3901 17.1038 21.04ZM17.1187 21.7025C17.1437 22.5362 17.1838 23.345 17.2413 24.1225C16.1204 24.6314 14.9822 25.1012 13.8287 25.5312C10.47 26.7412 9.395 26.3562 9.395 26.3562C9.0875 26.3187 9.1575 26.0637 9.1575 26.0637C9.535 24.9888 10.74 23.8663 10.74 23.8663C11.7738 22.7537 13.4025 21.5225 15.09 20.3875C15.7325 20.825 16.4112 21.2663 17.1187 21.7038V21.7025ZM22.9487 19.0525C23.59 19.4338 23.9713 19.6725 23.9713 19.6725C24.1537 19.8013 24.3325 19.9263 24.505 20.05C23.9088 20.46 23.38 20.8025 22.9475 21.07C22.9594 20.3971 22.9598 19.7254 22.9487 19.0525ZM22.245 23.9075C21.5938 23.5987 21.0325 23.3112 20.5875 23.0737C21.1875 22.7432 21.7818 22.4023 22.37 22.0513C22.34 22.6913 22.295 23.3162 22.245 23.9075ZM17.7638 22.095C18.3172 22.4274 18.876 22.7508 19.44 23.065C18.8975 23.3438 18.36 23.605 17.845 23.845C17.8103 23.262 17.7832 22.6787 17.7638 22.095ZM17.7437 21.445C17.7203 20.5352 17.7107 19.6251 17.715 18.715C18.4717 18.2554 19.2351 17.807 20.005 17.37C20.92 17.87 21.745 18.3425 22.4025 18.7275C22.4075 19.145 22.4025 19.3775 22.4025 19.3775C22.4206 20.0533 22.4181 20.7294 22.395 21.405C21.9988 21.6425 21.77 21.765 21.77 21.765C21.1964 22.1155 20.6124 22.4486 20.0187 22.7638C19.615 22.5387 19.3938 22.4012 19.3938 22.4012C18.8345 22.0983 18.2843 21.7802 17.7437 21.445ZM20.6525 17.0062C21.3025 16.6437 21.7013 16.4338 21.7013 16.4338C21.8962 16.3425 22.0887 16.2537 22.2762 16.1688C22.335 16.8825 22.3675 17.5075 22.385 18.0112C21.8132 17.6665 21.2356 17.3315 20.6525 17.0062ZM17.7975 16.2113C18.335 16.4813 18.865 16.7563 19.3725 17.0275C18.8175 17.3349 18.2674 17.6512 17.7225 17.9762C17.7313 17.2337 17.7475 16.785 17.7475 16.785L17.7975 16.2113ZM17.8625 15.55C18.4912 9.435 19.4975 7.92125 19.8525 7.56875C19.8913 7.53029 19.9425 7.50681 19.9969 7.50246C20.0514 7.49811 20.1056 7.51318 20.15 7.545C20.7 7.93625 21.1625 9.56625 21.1625 9.56625C21.7463 11.7362 22.0575 13.85 22.2225 15.5562C21.4853 15.9101 20.7559 16.2802 20.035 16.6663C19.3193 16.2778 18.595 15.9056 17.8625 15.55ZM19.995 21.5363C20.4041 21.5363 20.7964 21.3737 21.0857 21.0845C21.375 20.7952 21.5375 20.4028 21.5375 19.9937C21.5375 19.5847 21.375 19.1923 21.0857 18.903C20.7964 18.6138 20.4041 18.4513 19.995 18.4513C19.5859 18.4513 19.1936 18.6138 18.9043 18.903C18.615 19.1923 18.4525 19.5847 18.4525 19.9937C18.4525 20.4028 18.615 20.7952 18.9043 21.0845C19.1936 21.3737 19.5859 21.5363 19.995 21.5363Z" fill="#E0E0E0"/>
</svg>
