<svg width="40" height="40" viewBox="0 0 40 40" fill="none" xmlns="http://www.w3.org/2000/svg">
<path fill-rule="evenodd" clip-rule="evenodd" d="M20 40C8.95375 40 0 31.0462 0 20C0 8.95375 8.95375 0 20 0C31.0462 0 40 8.95375 40 20C40 31.0462 31.0462 40 20 40ZM29.9925 20.2738L20.6225 5L11.25 20.275L20.6225 25.7162L29.9925 20.2738ZM30 22.02L20.6225 27.4587L11.25 22.0213L20.6225 34.9938L30 22.02Z" fill="white"/>
<path d="M20.6224 5V16.0875L29.9937 20.275L20.6224 5ZM20.6224 27.46V34.9938L29.9999 22.02L20.6224 27.46Z" fill="#595959" fill-opacity="0.298"/>
<path d="M20.6224 25.7163L29.9937 20.2751L20.6224 16.0901V25.7163Z" fill="#7C7C7C" fill-opacity="0.801"/>
<path d="M11.25 20.2751L20.6225 25.7163V16.0901L11.25 20.2751Z" fill="#595959" fill-opacity="0.298"/>
</svg>
