<svg width="40" height="40" viewBox="0 0 40 40" fill="none" xmlns="http://www.w3.org/2000/svg">
<g clip-path="url(#clip0_21_70)">
<path d="M20 37.8356C29.8503 37.8356 37.8356 29.8503 37.8356 20C37.8356 10.1497 29.8503 2.16443 20 2.16443C10.1497 2.16443 2.16443 10.1497 2.16443 20C2.16443 29.8503 10.1497 37.8356 20 37.8356Z" fill="white"/>
<path d="M20 -0.00317383C8.95473 -0.00317383 0 8.95627 0 20C0 31.0437 8.95473 40 20 40C31.0453 40 40.0008 31.046 40.0008 20C40.0322 8.98614 31.1302 0.0321924 20.1171 -0.00317383H20ZM20.3395 20.6751L18.2568 27.6964H29.3948C29.5438 27.6911 29.6887 27.7452 29.7978 27.8468C29.9068 27.9483 29.9711 28.089 29.9764 28.2379V28.4218L29.0082 31.7675C28.9655 31.9255 28.8704 32.0643 28.7384 32.1612C28.6065 32.258 28.4455 32.3071 28.282 32.3003H11.2355L14.0923 22.5668L10.8959 23.535L11.6229 21.3077L14.8185 20.3387L18.8384 6.68262C18.8826 6.52546 18.9781 6.38761 19.1097 6.29104C19.2413 6.19447 19.4014 6.14473 19.5646 6.14977H23.8746C24.0235 6.14468 24.1683 6.19895 24.2773 6.30064C24.3862 6.40233 24.4502 6.54312 24.4554 6.69205V6.87674L21.0657 18.4022L24.262 17.4332L23.5854 19.7579L20.3395 20.6751Z" fill="#345D9D"/>
</g>
<defs>
<clipPath id="clip0_21_70">
<rect width="40" height="40" fill="white"/>
</clipPath>
</defs>
</svg>
