<svg width="34" height="40" viewBox="0 0 34 40" fill="none" xmlns="http://www.w3.org/2000/svg">
<g clip-path="url(#clip0_21_39)">
<path d="M28.7653 3.11352C26.9198 1.00995 23.5836 0.108093 19.3157 0.108093H6.9289C6.50663 0.108109 6.09821 0.258761 5.77708 0.532964C5.45595 0.807166 5.24316 1.18693 5.17698 1.60399L0.0193655 34.3148C-0.083151 34.9599 0.416319 35.544 1.07009 35.544H8.71725L10.6378 23.3624L10.5782 23.7439C10.715 22.8828 11.4514 22.2477 12.3235 22.2477H15.9574C23.0962 22.2477 28.686 19.3481 30.3188 10.9601C30.3673 10.7121 30.4093 10.4706 30.4456 10.2347C30.2395 10.1256 30.2395 10.1256 30.4456 10.2347C30.9318 7.13445 30.4423 5.02412 28.7653 3.11352Z" fill="#27346A"/>
<path d="M13.5639 9.11789C13.7729 9.01835 14.0016 8.96676 14.2331 8.9669H23.9441C25.0941 8.9669 26.1667 9.04174 27.1468 9.19948C27.421 9.24321 27.6939 9.29542 27.9649 9.35604C28.3491 9.44081 28.7288 9.54456 29.1027 9.6669C29.5845 9.82783 30.0333 10.0152 30.4457 10.2347C30.9318 7.13326 30.4423 5.02412 28.7653 3.11352C26.9187 1.00995 23.5836 0.108093 19.3157 0.108093H6.92784C6.05566 0.108093 5.31367 0.74306 5.17698 1.60399L0.0193663 34.3137C-0.0831503 34.9597 0.41632 35.5431 1.06904 35.5431H8.71725L12.7018 10.2755C12.7409 10.0272 12.8399 9.79203 12.99 9.59038C13.1402 9.38872 13.3371 9.22658 13.5639 9.11789Z" fill="#27346A"/>
<path d="M30.3188 10.9601C28.686 19.3469 23.0963 22.2477 15.9574 22.2477H12.3224C11.4504 22.2477 10.7138 22.8828 10.5783 23.7438L8.18905 38.8902C8.09978 39.4547 8.53633 39.9662 9.10746 39.9662H15.5538C15.9231 39.9661 16.2802 39.8343 16.5609 39.5944C16.8417 39.3545 17.0276 39.0224 17.0853 38.6576L17.1481 38.3291L18.3631 30.629L18.4414 30.2035C18.4991 29.8387 18.685 29.5066 18.9657 29.2667C19.2464 29.0268 19.6035 28.895 19.9728 28.8948H20.9375C27.1822 28.8948 32.0718 26.3579 33.5007 19.0207C34.0971 15.9544 33.7885 13.3944 32.2108 11.5963C31.7322 11.0517 31.1379 10.6019 30.4456 10.2347C30.4081 10.4718 30.3675 10.7121 30.3188 10.9601Z" fill="#2790C3"/>
<path d="M28.7367 9.55336C28.4821 9.47902 28.2251 9.4132 27.9661 9.35601C27.6949 9.29639 27.4221 9.24453 27.148 9.20051C26.1668 9.04171 25.095 8.96674 23.944 8.96674H14.2342C14.0025 8.96621 13.7736 9.01825 13.5649 9.11893C13.338 9.22728 13.1408 9.38932 12.9906 9.59104C12.8403 9.79275 12.7415 10.028 12.7027 10.2765L10.6388 23.3624L10.5792 23.7438C10.715 22.8828 11.4514 22.2477 12.3236 22.2477H15.9586C23.0974 22.2477 28.6871 19.3481 30.3199 10.9601C30.3685 10.712 30.4093 10.4716 30.4468 10.2347C30.0333 10.0164 29.5857 9.8278 29.1037 9.66793C28.9821 9.62761 28.8598 9.58942 28.7369 9.55336" fill="#1F264F"/>
</g>
<defs>
<clipPath id="clip0_21_39">
<rect width="33.91" height="40" fill="white"/>
</clipPath>
</defs>
</svg>
