<svg width="40" height="40" viewBox="0 0 40 40" fill="none" xmlns="http://www.w3.org/2000/svg">
<path d="M20 40C8.95375 40 0 31.0462 0 20C0 8.95375 8.95375 0 20 0C31.0462 0 40 8.95375 40 20C40 31.0462 31.0462 40 20 40ZM28.8375 10L23.12 15.6537C22.2881 16.4748 21.1663 16.9352 19.9975 16.9352C18.8287 16.9352 17.7069 16.4748 16.875 15.6537L11.1625 10H7.54375L15.0688 17.4462C16.3833 18.7414 18.1546 19.4674 20 19.4674C21.8454 19.4674 23.6167 18.7414 24.9312 17.4462L32.4513 10H28.8375ZM11.1188 30.7038L16.88 25C17.7119 24.1789 18.8337 23.7185 20.0025 23.7185C21.1713 23.7185 22.2931 24.1789 23.125 25L28.8812 30.7038H32.5L24.9312 23.2125C23.6167 21.9173 21.8454 21.1913 20 21.1913C18.1546 21.1913 16.3833 21.9173 15.0688 23.2125L7.5 30.7025L11.1188 30.7038Z" fill="#D1D1D1"/>
</svg>
