<svg width="39" height="39" viewBox="0 0 39 39" fill="none" xmlns="http://www.w3.org/2000/svg">
<path d="M19.5 37C29.1652 37 37 29.1652 37 19.5C37 9.83475 29.1652 2 19.5 2C9.83475 2 2 9.83475 2 19.5C2 29.1652 9.83475 37 19.5 37Z" stroke="#0088FF" stroke-width="2.5" stroke-linecap="round" stroke-linejoin="round"/>
<path d="M20.7863 11.52C20.7863 11.1885 20.6546 10.8706 20.4201 10.6361C20.1857 10.4017 19.8678 10.27 19.5363 10.27C19.2047 10.27 18.8868 10.4017 18.6524 10.6361C18.418 10.8706 18.2863 11.1885 18.2863 11.52V19.3663C17.8135 19.6409 17.4445 20.0638 17.2365 20.5693C17.0284 21.0749 16.9929 21.635 17.1354 22.1628C17.278 22.6907 17.5906 23.1567 18.0248 23.4889C18.4591 23.821 18.9908 24.0007 19.5375 24C20.9113 24 22.0238 22.8875 22.0238 21.5138V21.5L26.5838 18.8675C26.8685 18.7006 27.0757 18.4278 27.1601 18.1087C27.2444 17.7895 27.1992 17.45 27.0341 17.1642C26.8691 16.8783 26.5976 16.6693 26.2791 16.5828C25.9605 16.4963 25.6207 16.5394 25.3338 16.7025L20.7838 19.3275V11.5213L20.7863 11.52Z" fill="#0088FF"/>
</svg>
