<svg width="46" height="46" viewBox="0 0 46 46" fill="none" xmlns="http://www.w3.org/2000/svg">
<rect width="46" height="46" rx="10" fill="url(#paint0_linear_42_477)"/>
<path d="M28.3666 28.3666H19.9333C19.5116 28.3666 19.1507 28.2166 18.8507 27.9166C18.5502 27.6161 18.3999 27.255 18.3999 26.8333V16.1C18.3999 15.6783 18.5502 15.3172 18.8507 15.0167C19.1507 14.7167 19.5116 14.5667 19.9333 14.5667H25.2999L29.8999 19.1666V26.8333C29.8999 27.255 29.7499 27.6161 29.4499 27.9166C29.1494 28.2166 28.7883 28.3666 28.3666 28.3666ZM24.5333 19.9333V16.1H19.9333V26.8333H28.3666V19.9333H24.5333ZM16.8666 31.4333C16.4449 31.4333 16.0841 31.2833 15.7841 30.9833C15.4835 30.6827 15.3333 30.3216 15.3333 29.9V19.1666H16.8666V29.9H25.2999V31.4333H16.8666Z" fill="white"/>
<defs>
<linearGradient id="paint0_linear_42_477" x1="48.5115" y1="2.09232e-06" x2="-2.11494" y2="2.01439e-06" gradientUnits="userSpaceOnUse">
<stop stop-color="#00A7EA"/>
<stop offset="1" stop-color="#00A7EA" stop-opacity="0.79"/>
</linearGradient>
</defs>
</svg>
